<svg width="61" height="61" viewBox="0 0 61 61" fill="none" xmlns="http://www.w3.org/2000/svg">
<path d="M32.307 0.0550978C15.4982 -0.947349 1.06347 11.8486 0.0556157 28.6779C-0.952242 45.5072 11.8587 59.9425 28.6676 60.9449C45.4764 61.9473 59.9111 49.1514 60.919 32.3221C61.9269 15.4928 49.1047 1.05754 32.307 0.0550978ZM28.9475 56.0978C14.8151 55.2486 4.04225 43.1249 4.88213 28.9727C5.72201 14.8206 17.8947 4.0295 32.0383 4.87864C46.1819 5.72777 56.9436 17.8515 56.1037 32.0037C55.2638 46.1559 43.1135 56.9351 28.9699 56.0978H28.9475Z" fill="black"/>
<path d="M17.0436 30.9483L16.9204 31.7738C16.9204 31.9625 16.8645 32.2102 16.8197 32.505L16.7637 33.0947L16.6853 33.1773H16.2821L16.2149 33.0829C16.2668 32.689 16.244 32.2881 16.1478 31.9036C16.047 31.7502 15.3975 31.6441 14.2104 31.5969C14.0201 31.5969 13.7177 31.5969 13.3146 31.5969C13.2097 32.4853 13.1499 33.379 13.1354 34.2741V35.2647L13.9305 35.3237H15.2407C15.2875 35.3286 15.3349 35.3226 15.3793 35.3063C15.4238 35.2901 15.4644 35.2638 15.4982 35.2293C15.61 34.9205 15.6669 34.5927 15.6662 34.2623H15.7334H16.1702L16.2373 34.333C16.2373 34.8755 16.1702 35.3826 16.1478 35.8426C16.1254 36.3025 16.1478 36.8686 16.1478 37.4583L16.0694 37.5173H15.6102L15.543 37.4347C15.5839 37.1375 15.5839 36.8356 15.543 36.5384C15.4759 36.3615 15.2407 36.2436 14.8375 36.1964L14.0313 36.1256C13.7177 36.1256 13.4265 36.1256 13.169 36.1256V37.8711C13.1209 38.6289 13.1209 39.3893 13.169 40.1472C13.1739 40.213 13.198 40.2756 13.2381 40.3263C13.2783 40.377 13.3324 40.4133 13.3929 40.4303L14.3896 40.5482L14.4568 40.6189V41.1143L14.3784 41.185L11.5788 41.0199C11.1757 41.0199 10.6269 41.0199 9.92144 41.0199L9.85425 40.9492V40.442L9.93264 40.3713C10.2047 40.395 10.4781 40.395 10.7501 40.3713C10.8109 40.3585 10.8668 40.3271 10.9107 40.2809C10.9545 40.2347 10.9844 40.1759 10.9965 40.1118C11.0501 39.3424 11.0501 38.5698 10.9965 37.8003L11.1421 33.9202C11.1902 33.1624 11.1902 32.402 11.1421 31.6441C11.1357 31.5788 11.1109 31.517 11.071 31.4666C11.0312 31.4162 10.9779 31.3795 10.9181 31.3611C10.6593 31.3027 10.3976 31.2594 10.1342 31.2313L10.067 31.1488V30.6535L10.1342 30.5945C10.5821 30.5945 11.2541 30.6888 12.2843 30.7242C12.9226 30.7242 14.524 30.8068 16.9764 30.8893L17.0436 30.9483Z" fill="black"/>
<path d="M27.1228 41.4766L27.0556 41.5474H26.7869L25.5999 41.4766C25.3535 41.4766 24.9839 41.4766 24.48 41.4766C24.4227 41.2639 24.3359 41.0612 24.2224 40.8752L22.5427 37.7971L21.8036 36.5351C21.6904 36.3661 21.5546 36.2151 21.4004 36.087L21.4788 35.8393H21.714C22.0973 35.8718 22.4823 35.8029 22.8338 35.6388C23.1072 35.4654 23.3345 35.222 23.4946 34.9312C23.7084 34.5792 23.8211 34.1697 23.8193 33.7519C23.8635 33.4137 23.8063 33.0694 23.6557 32.767C23.5052 32.4647 23.2687 32.2194 22.9794 32.0654C22.5963 31.899 22.1843 31.8187 21.77 31.8295C21.5466 31.8053 21.3215 31.8053 21.0981 31.8295C21.0421 32.3013 20.9973 33.115 20.9749 34.2708L20.8965 38.1155C20.8478 38.8733 20.8478 39.6338 20.8965 40.3916C20.9052 40.4578 20.932 40.5199 20.9738 40.5702C21.0156 40.6205 21.0705 40.6568 21.1317 40.6747C21.1989 40.6747 21.4788 40.6747 21.9492 40.769L22.0164 40.8398V41.3351L21.9492 41.4059C21.49 41.4059 20.7733 41.3351 19.8103 41.3115C18.8472 41.2879 18.0857 41.3115 17.6602 41.3115L17.5818 41.2525V40.7454L17.6602 40.6747C17.9337 40.6786 18.2072 40.6588 18.4777 40.6157C18.5385 40.603 18.5944 40.5715 18.6382 40.5253C18.6821 40.4791 18.7119 40.4203 18.724 40.3562C18.8186 39.6017 18.8635 38.8412 18.8584 38.0801L18.9368 34.259C18.9875 33.4973 18.9875 32.7328 18.9368 31.9711C18.9331 31.9062 18.9091 31.8444 18.8686 31.7953C18.8281 31.7463 18.7733 31.7127 18.7128 31.6998C18.6456 31.6998 18.3657 31.6998 17.8953 31.6055L17.8282 31.5347V31.0276H17.8953C18.3545 31.0276 19.0152 31.0983 20.0454 31.1219H23.0018C23.6019 31.1075 24.2 31.1992 24.7712 31.3932C25.0011 31.4822 25.2096 31.6235 25.3818 31.8069C25.5541 31.9903 25.6859 32.2115 25.7678 32.4546C25.8502 32.7329 25.8843 33.0245 25.8686 33.3155C25.852 33.9787 25.621 34.616 25.2137 35.1221C24.8065 35.6282 24.2474 35.9728 23.6289 36.0988L24.3456 37.3607L25.3871 39.1297C25.714 39.7798 26.1248 40.3791 26.6077 40.9105C26.7427 40.9967 26.8978 41.0416 27.0556 41.0403L27.1228 41.111V41.4766Z" fill="black"/>
<path d="M32.2859 41.4908L32.2187 41.5733C31.7596 41.5733 31.0989 41.5144 30.0686 41.5144C29.0383 41.5144 28.3776 41.5144 27.9185 41.5144L27.8513 41.4436V40.9483L27.9185 40.8775C28.1922 40.874 28.4654 40.8504 28.736 40.8068C28.797 40.7927 28.8523 40.759 28.8945 40.7104C28.9366 40.6619 28.9634 40.6008 28.9712 40.5355C29.0602 39.7806 29.0939 39.0197 29.0719 38.2594V34.3793C29.091 33.6196 29.0648 32.8594 28.9936 32.1032C28.9858 32.0379 28.959 31.9768 28.9169 31.9282C28.8747 31.8797 28.8194 31.846 28.7584 31.8319C28.4875 31.7886 28.2146 31.7611 27.9409 31.7494L27.8737 31.6786V31.1951H27.9409C28.3888 31.1951 29.0607 31.1951 30.091 31.1951C31.1213 31.1951 31.782 31.1951 32.2299 31.1951L32.2971 31.2658V31.7612L32.2299 31.8319C31.7484 31.8319 31.4796 31.8319 31.4124 31.9027C31.3514 31.9168 31.2961 31.9504 31.254 31.999C31.2118 32.0476 31.185 32.1087 31.1772 32.1739C31.0884 32.9289 31.051 33.6895 31.0653 34.4501V38.3301C31.0463 39.0938 31.0725 39.8579 31.1437 40.6181C31.1529 40.6827 31.1803 40.743 31.2221 40.7913C31.264 40.8396 31.3185 40.8737 31.3788 40.8893C31.446 40.8893 31.726 40.8893 32.1963 40.9601L32.2635 41.0426L32.2859 41.4908Z" fill="black"/>
<path d="M41.7358 38.9049C41.6462 39.8012 41.579 40.6503 41.5342 41.4405L41.467 41.5112C39.5521 41.5112 38.1075 41.5112 37.1108 41.5112C36.3829 41.5112 35.0951 41.5112 33.2586 41.6056L33.1802 41.5348V41.0277C33.5161 40.5677 34.0425 39.8483 34.7368 38.7397L35.7446 37.2066L37.01 35.1427C37.4356 34.4823 38.0739 33.4445 38.925 32.041H37.1668C36.3887 32.0198 35.6101 32.0592 34.8375 32.159C34.7753 32.1807 34.7197 32.2195 34.6765 32.2713C34.6332 32.3231 34.6037 32.3861 34.5912 32.4538C34.5912 32.5246 34.5352 32.7487 34.4792 33.1378L34.4232 33.5152L34.3448 33.586H33.9193L33.8521 33.5034C33.8521 32.9845 33.8521 32.5128 33.8521 32.1C33.8521 31.9703 33.8521 31.6754 33.8521 31.2155L33.9193 31.1447C34.5613 31.1447 35.9723 31.1447 38.1523 31.1447L41.5118 31.074L41.579 31.1447V31.5811L41.0191 32.442C40.4256 33.3147 39.8992 34.0931 39.4849 34.8007L37.4468 38.0086C37.2228 38.3741 36.6853 39.2469 35.8454 40.6503H36.9652C38.2244 40.7307 39.4881 40.6475 40.7279 40.4026C40.9106 40.0374 41.0175 39.6354 41.0415 39.2233L41.1198 38.8695L41.1982 38.7987H41.6126L41.7358 38.9049Z" fill="black"/>
<path d="M51.1668 38.6464C51.0996 39.5427 51.0437 40.3801 51.0101 41.182L50.9429 41.241L46.5979 41.3354L42.7456 41.5123L42.6672 41.4415V40.9344C43.0032 40.4626 43.5071 39.755 44.179 38.5757L45.1645 37.0189L46.4075 34.9669C46.8218 34.2828 47.449 33.245 48.2664 31.818H46.5195C45.7362 31.8139 44.9537 31.873 44.179 31.9949C44.1183 32.0173 44.0644 32.0565 44.023 32.1084C43.9817 32.1602 43.9543 32.2229 43.9439 32.2897C43.8967 32.5153 43.863 32.7438 43.8431 32.9738V33.3512L43.7647 33.4219H43.2831L43.216 33.3394C43.216 32.8205 43.216 32.3487 43.216 31.9359C43.216 31.8062 43.216 31.5114 43.216 31.0514L43.2831 30.9807C43.9215 30.9807 45.3325 30.9807 47.5162 30.8981L50.8757 30.7566L50.9541 30.8274V31.2637L50.4053 32.1246C49.823 33.0209 49.2855 33.7993 48.916 34.4833L46.9114 37.7973C46.6875 38.1629 46.1723 39.0474 45.3549 40.4744H46.4747C47.7365 40.5283 48.9999 40.4214 50.2374 40.156C50.4132 39.7893 50.5125 39.3872 50.5285 38.9767C50.5285 38.8351 50.5509 38.7172 50.5957 38.6229L50.6741 38.5403H51.0884L51.1668 38.6464Z" fill="black"/>
<path d="M19.7897 24.9392C19.6553 25.8237 19.5545 26.6611 19.4761 27.4512L19.4089 27.522C17.494 27.4041 16.0494 27.3333 15.0527 27.2861C14.336 27.2861 13.0482 27.2272 11.2005 27.2036L11.1333 27.18V26.6611C11.4917 26.2247 12.0404 25.4817 12.7907 24.4557L13.8545 22.9697L15.2319 21.0002C15.6911 20.3516 16.3518 19.3491 17.27 17.9929L15.5231 17.9221C14.7439 17.8645 13.9618 17.8645 13.1826 17.9221C13.1217 17.9449 13.0667 17.9823 13.0219 18.0314C12.9772 18.0806 12.944 18.1401 12.925 18.2051C12.925 18.2759 12.8579 18.5 12.7795 18.8892L12.7123 19.2548L12.6339 19.3255H12.2083L12.1412 19.243C12.1412 18.7241 12.2307 18.2523 12.2419 17.8395C12.2419 17.7098 12.2419 17.415 12.2419 16.955L12.3091 16.8843C12.9362 16.8843 14.3472 17.014 16.5309 17.0966L19.8905 17.1791L19.9577 17.2617V17.698L19.3641 18.5236C18.7258 19.3727 18.1883 20.1157 17.7292 20.7643L15.5567 23.8778C15.3103 24.2198 14.7392 25.0572 13.8433 26.437L14.9632 26.496C16.2188 26.6356 17.4859 26.6158 18.737 26.437C18.9209 26.0899 19.0424 25.7101 19.0954 25.3166L19.185 24.9628L19.2633 24.8921H19.6777L19.7897 24.9392Z" fill="black"/>
<path d="M28.5902 25.2106C28.4687 26.0102 28.4051 26.8184 28.3998 27.6282L28.3214 27.699L23.2597 27.5575C22.4087 27.5575 21.8151 27.5575 21.468 27.5575L21.4008 27.4867V27.2744V27.1919C21.608 27.0773 21.8 26.9345 21.9719 26.7673C22.0388 26.446 22.0689 26.1173 22.0615 25.7884V24.1492L22.1287 20.4224C22.163 19.6633 22.1443 18.9025 22.0727 18.1463C22.0649 18.081 22.0381 18.0199 21.996 17.9713C21.9539 17.9228 21.8985 17.8891 21.8375 17.875C21.5978 17.8152 21.3547 17.7718 21.1096 17.7453H21.0312V17.2382L21.1096 17.1792C21.5688 17.1792 22.2967 17.25 23.2821 17.2618H28.2654L28.3438 17.3207L28.243 18.1345C28.243 18.3939 28.1758 18.618 28.1646 18.7949L28.1086 19.4789L28.0303 19.5615H27.6271L27.5599 19.4907C27.606 19.0953 27.5756 18.6941 27.4703 18.3114C27.2374 18.1896 26.98 18.1289 26.72 18.1345C26.2721 18.1345 25.8802 18.0637 25.5442 18.0519C25.2083 18.0401 24.7267 18.0519 24.3124 18.0519C24.2564 18.559 24.2116 19.2313 24.2004 20.1865V21.7079C24.5588 21.7079 24.8611 21.7079 25.0851 21.7079H26.0033C26.4289 21.7079 26.6753 21.7079 26.7312 21.6136C26.8454 21.2976 26.8987 20.9608 26.888 20.6229L26.9328 20.6937H27.3584L27.4255 20.7644C27.4255 21.3069 27.4255 21.814 27.4255 22.274C27.4255 22.7339 27.4255 23.3 27.4255 23.8897L27.3472 23.9605H26.888L26.8208 23.8897C26.8507 23.5518 26.8164 23.2111 26.72 22.8872C26.6529 22.7811 26.4177 22.6986 26.0481 22.6632C25.6786 22.6278 25.4658 22.6632 25.1411 22.6042C24.8163 22.5452 24.4916 22.6042 24.1892 22.6042V24.845C24.1892 25.4818 24.1892 26.1069 24.1892 26.7083H25.1411C25.975 26.775 26.8134 26.7354 27.6383 26.5904C27.6614 26.5857 27.6834 26.5759 27.7026 26.5617C27.7219 26.5474 27.7382 26.5291 27.7503 26.5079C27.8297 26.376 27.8795 26.2267 27.8959 26.0715L28.0751 25.1634L28.1422 25.0926H28.5678L28.5902 25.2106Z" fill="black"/>
<path d="M39.2499 27.6297L39.1827 27.7005H38.914H37.7157C37.4806 27.7005 37.0998 27.7005 36.5959 27.7005C36.5451 27.4889 36.4578 27.2891 36.3383 27.1108L34.6026 24.0681L33.8187 22.8297C33.7046 22.6577 33.5646 22.5063 33.4044 22.3816L33.4827 22.1339H33.6507C34.0371 22.1585 34.4229 22.0773 34.7706 21.8981C35.0441 21.7198 35.2712 21.4725 35.4313 21.1787C35.6278 20.8205 35.7284 20.4129 35.7224 19.9993C35.7566 19.6463 35.6826 19.2911 35.5113 18.9855C35.3401 18.68 35.0805 18.4401 34.7706 18.301C34.3804 18.1493 33.9654 18.0812 33.5499 18.1006C33.33 18.0826 33.1091 18.0826 32.8892 18.1006C32.8892 18.5841 32.822 19.3978 32.822 20.5536V24.3983C32.8046 25.1582 32.8345 25.9186 32.9116 26.6744C32.9194 26.7397 32.9462 26.8008 32.9883 26.8494C33.0304 26.8979 33.0858 26.9316 33.1468 26.9457L33.9643 27.0164L34.0315 27.0872V27.5825L33.9643 27.6533C33.4939 27.6533 32.7884 27.6533 31.8142 27.6533C30.8399 27.6533 30.1008 27.6533 29.6641 27.6533L29.5969 27.5825V27.1815L29.6641 27.1108C29.9379 27.0999 30.2108 27.0723 30.4816 27.0282C30.5426 27.0141 30.5979 26.9805 30.64 26.9319C30.6821 26.8833 30.7089 26.8222 30.7167 26.757C30.7999 26.0016 30.8298 25.2408 30.8063 24.4808V20.5772C30.8241 19.8172 30.7942 19.0569 30.7167 18.301C30.7067 18.2348 30.6777 18.1734 30.6337 18.125C30.5897 18.0765 30.5327 18.0433 30.4704 18.0298C30.2036 17.9858 29.9341 17.9621 29.6641 17.959L29.5857 17.8765V17.3812L29.6529 17.3104C30.112 17.3104 30.8287 17.3104 31.803 17.3104H33.1916C33.8859 17.3104 34.4122 17.3104 34.7594 17.3104C35.3563 17.2759 35.9544 17.3477 36.5287 17.5227C36.7633 17.6068 36.9774 17.7445 37.1555 17.9259C37.3336 18.1074 37.4714 18.3281 37.559 18.5723C37.645 18.8461 37.6866 19.1331 37.6821 19.4214C37.6779 20.0769 37.4665 20.7121 37.0811 21.2268C36.6958 21.7415 36.1586 22.1064 35.5544 22.2637C35.7933 22.6804 36.0397 23.0931 36.2935 23.502L37.4134 25.2474C37.7606 25.8852 38.1861 26.4721 38.6788 26.9929C38.8129 27.08 38.9694 27.1212 39.1267 27.1108L39.2499 27.1815V27.6297Z" fill="black"/>
<path d="M50.6177 21.9392C50.6804 22.717 50.5894 23.5 50.3504 24.2388C50.1114 24.9777 49.7296 25.6564 49.2291 26.232C48.7044 26.7625 48.0846 27.1775 47.4058 27.4529C46.7271 27.7283 46.0031 27.8585 45.2761 27.836C44.5939 27.8988 43.9067 27.8151 43.2561 27.5901C42.6055 27.3651 42.005 27.0034 41.491 26.5269C41.0101 26.0163 40.6331 25.4079 40.3828 24.7388C40.1325 24.0696 40.0142 23.3539 40.0352 22.635C39.9278 21.6457 40.1026 20.645 40.5374 19.7607C40.9722 18.8764 41.6473 18.1485 42.4765 17.67C43.3653 17.2111 44.3422 16.9731 45.3321 16.9742C46.7104 16.8569 48.0784 17.3048 49.1507 18.2243C49.6301 18.6996 50.0087 19.2763 50.2615 19.9165C50.5143 20.5568 50.6357 21.2461 50.6177 21.9392ZM48.4788 22.3874C48.5125 21.1987 48.2041 20.027 47.5942 19.0262C47.3209 18.6277 46.9548 18.3098 46.5312 18.1033C46.1076 17.8968 45.6407 17.8085 45.1753 17.8469C44.5744 17.8164 43.9814 18 43.4917 18.368C43.0021 18.736 42.6444 19.267 42.4765 19.8754C42.2557 20.6067 42.1572 21.3729 42.1853 22.1397C42.154 23.3822 42.4568 24.6087 43.0588 25.6778C43.3255 26.1108 43.6984 26.4599 44.1379 26.6883C44.5775 26.9166 45.0674 27.0157 45.556 26.975C46.1667 26.9993 46.7661 26.798 47.2507 26.4061C47.7354 26.0141 48.0747 25.4562 48.2101 24.8286C48.4283 24.0364 48.5192 23.2112 48.4788 22.3874Z" fill="black"/>
</svg>
